<?xml version="1.0" encoding="UTF-8" standalone="no"?>
<!-- Created with Inkscape (http://www.inkscape.org/) -->

<svg
   xmlns:dc="http://purl.org/dc/elements/1.1/"
   xmlns:cc="http://creativecommons.org/ns#"
   xmlns:rdf="http://www.w3.org/1999/02/22-rdf-syntax-ns#"
   xmlns:svg="http://www.w3.org/2000/svg"
   xmlns="http://www.w3.org/2000/svg"
   xmlns:xlink="http://www.w3.org/1999/xlink"
   xmlns:sodipodi="http://sodipodi.sourceforge.net/DTD/sodipodi-0.dtd"
   xmlns:inkscape="http://www.inkscape.org/namespaces/inkscape"
   id="svg2"
   version="1.1"
   inkscape:version="0.91 r13725"
   width="1000"
   height="315"
   xml:space="preserve"
   sodipodi:docname="foboxy-logo.svg"><metadata
     id="metadata8"><rdf:RDF><cc:Work
         rdf:about=""><dc:format>image/svg+xml</dc:format><dc:type
           rdf:resource="http://purl.org/dc/dcmitype/StillImage" /><dc:title></dc:title></cc:Work></rdf:RDF></metadata><defs
     id="defs6"><color-profile
       name="ISO-Coated-v2-300---ECI-"
       xlink:href="C:\WINDOWS\system32\spool\drivers\color\ISOcoated_v2_300_eci.icc"
       id="color-profile4337" /><linearGradient
       x1="0"
       y1="0"
       x2="1"
       y2="0"
       id="linearGradient3058"
       gradientUnits="userSpaceOnUse"
       gradientTransform="matrix(-40.905586,30.480108,30.480108,40.905586,551.38312,335.79401)"
       spreadMethod="pad"><stop
         id="stop3060"
         style="stop-color:#fecb00;stop-opacity:1"
         offset="0" /><stop
         id="stop3064"
         style="stop-color:#e98300;stop-opacity:1"
         offset="1" /></linearGradient><clipPath
       clipPathUnits="userSpaceOnUse"
       id="clipPath16"><path
         d="M 0,768 1024,768 1024,0 0,0 0,768 z"
         id="path18"
         inkscape:connector-curvature="0" /></clipPath><linearGradient
       x1="0"
       y1="0"
       x2="1"
       y2="0"
       gradientUnits="userSpaceOnUse"
       gradientTransform="matrix(122.771,-24.958433,-24.958433,-122.771,419.99603,442.48074)"
       spreadMethod="pad"
       id="linearGradient56"><stop
         style="stop-opacity:1;stop-color:#e4e700"
         offset="0"
         id="stop58" /><stop
         style="stop-opacity:1;stop-color:#a4d500"
         offset="1"
         id="stop60" /></linearGradient><linearGradient
       x1="0"
       y1="0"
       x2="1"
       y2="0"
       gradientUnits="userSpaceOnUse"
       gradientTransform="matrix(-24.209595,-68.77066,-68.77066,24.209595,455.93869,523.14288)"
       spreadMethod="pad"
       id="linearGradient76"><stop
         style="stop-opacity:1;stop-color:#e4e700"
         offset="0"
         id="stop78" /><stop
         style="stop-opacity:1;stop-color:#a4d500"
         offset="1"
         id="stop80" /></linearGradient><linearGradient
       x1="0"
       y1="0"
       x2="1"
       y2="0"
       gradientUnits="userSpaceOnUse"
       gradientTransform="matrix(-104.19514,77.639259,77.639259,104.19514,575.48199,471.46991)"
       spreadMethod="pad"
       id="linearGradient96"><stop
         style="stop-opacity:1;stop-color:#ffc315"
         offset="0"
         id="stop98" /><stop
         style="stop-opacity:1;stop-color:#fcc014"
         offset="0.546764"
         id="stop100" /><stop
         style="stop-opacity:1;stop-color:#ec8401"
         offset="1"
         id="stop102" /></linearGradient><linearGradient
       x1="0"
       y1="0"
       x2="1"
       y2="0"
       gradientUnits="userSpaceOnUse"
       gradientTransform="matrix(37.377495,84.199226,84.199226,-37.377495,529.96643,411.49246)"
       spreadMethod="pad"
       id="linearGradient118"><stop
         style="stop-opacity:1;stop-color:#e4e700"
         offset="0"
         id="stop120" /><stop
         style="stop-opacity:1;stop-color:#a4d500"
         offset="1"
         id="stop122" /></linearGradient><linearGradient
       inkscape:collect="always"
       xlink:href="#linearGradient56"
       id="linearGradient3905"
       gradientUnits="userSpaceOnUse"
       gradientTransform="matrix(122.771,-24.958433,-24.958433,-122.771,419.99603,442.48074)"
       spreadMethod="pad"
       x1="0"
       y1="0"
       x2="1"
       y2="0" /><linearGradient
       inkscape:collect="always"
       xlink:href="#linearGradient76"
       id="linearGradient3907"
       gradientUnits="userSpaceOnUse"
       gradientTransform="matrix(-24.209595,-68.77066,-68.77066,24.209595,455.93869,523.14288)"
       spreadMethod="pad"
       x1="0"
       y1="0"
       x2="1"
       y2="0" /><linearGradient
       inkscape:collect="always"
       xlink:href="#linearGradient96"
       id="linearGradient3909"
       gradientUnits="userSpaceOnUse"
       gradientTransform="matrix(-104.19514,77.639259,77.639259,104.19514,575.48199,471.46991)"
       spreadMethod="pad"
       x1="0"
       y1="0"
       x2="1"
       y2="0" /><linearGradient
       inkscape:collect="always"
       xlink:href="#linearGradient118"
       id="linearGradient3911"
       gradientUnits="userSpaceOnUse"
       gradientTransform="matrix(37.377495,84.199226,84.199226,-37.377495,529.96643,411.49246)"
       spreadMethod="pad"
       x1="0"
       y1="0"
       x2="1"
       y2="0" /><linearGradient
       inkscape:collect="always"
       xlink:href="#linearGradient4086"
       id="linearGradient4084"
       gradientUnits="userSpaceOnUse"
       gradientTransform="matrix(48.198212,-9.7983389,-9.7983389,-48.198212,490.34149,324.41327)"
       spreadMethod="pad"
       x1="-0.049774252"
       y1="-0.24484047"
       x2="0.92764741"
       y2="0.025793923" /><linearGradient
       spreadMethod="pad"
       gradientTransform="matrix(48.198212,-9.7983389,-9.7983389,-48.198212,490.34149,324.41327)"
       gradientUnits="userSpaceOnUse"
       id="linearGradient4086"
       y2="0"
       x2="1"
       y1="0"
       x1="0"><stop
         offset="0"
         style="stop-color:#e7e600;stop-opacity:1"
         id="stop4088" /><stop
         offset="1"
         style="stop-color:#92d400;stop-opacity:1"
         id="stop4090" /></linearGradient><linearGradient
       inkscape:collect="always"
       xlink:href="#linearGradient4094"
       id="linearGradient4092"
       gradientUnits="userSpaceOnUse"
       gradientTransform="matrix(-9.5043554,-26.998419,-26.998419,9.5043554,504.45206,356.08008)"
       spreadMethod="pad"
       x1="-0.57444078"
       y1="-0.28262091"
       x2="0.88815671"
       y2="0.01958308" /><linearGradient
       spreadMethod="pad"
       gradientTransform="matrix(-9.5043554,-26.998419,-26.998419,9.5043554,504.45206,356.08008)"
       gradientUnits="userSpaceOnUse"
       id="linearGradient4094"
       y2="0"
       x2="1"
       y1="0"
       x1="0"><stop
         offset="0"
         style="stop-color:#e7e600;stop-opacity:1"
         id="stop4096" /><stop
         offset="1"
         style="stop-color:#92d400;stop-opacity:1"
         id="stop4098" /></linearGradient><linearGradient
       inkscape:collect="always"
       xlink:href="#linearGradient4066"
       id="linearGradient4074"
       gradientUnits="userSpaceOnUse"
       gradientTransform="matrix(-40.905586,30.480108,30.480108,40.905586,551.38312,335.79401)"
       spreadMethod="pad"
       x1="0.016551627"
       y1="0.066035494"
       x2="0.93832719"
       y2="-0.038944948" /><linearGradient
       spreadMethod="pad"
       gradientTransform="matrix(-40.905586,30.480108,30.480108,40.905586,551.38312,335.79401)"
       gradientUnits="userSpaceOnUse"
       id="linearGradient4066"
       y2="0"
       x2="1"
       y1="0"
       x1="0"><stop
         offset="0"
         style="stop-color:#fecb00;stop-opacity:1"
         id="stop4068" /><stop
         offset="0.54676402"
         style="stop-color:#fcc014;stop-opacity:1"
         id="stop4070" /><stop
         offset="1"
         style="stop-color:#e98300;stop-opacity:1"
         id="stop4072" /></linearGradient><linearGradient
       inkscape:collect="always"
       xlink:href="#linearGradient4078"
       id="linearGradient4076"
       gradientUnits="userSpaceOnUse"
       gradientTransform="matrix(14.673892,33.055462,33.055462,-14.673892,533.51434,312.24768)"
       spreadMethod="pad"
       x1="-0.1514923"
       y1="-0.013566542"
       x2="0.94599009"
       y2="0.023975948" /><linearGradient
       spreadMethod="pad"
       gradientTransform="matrix(14.673892,33.055462,33.055462,-14.673892,533.51434,312.24768)"
       gradientUnits="userSpaceOnUse"
       id="linearGradient4078"
       y2="0"
       x2="1"
       y1="0"
       x1="0"><stop
         offset="0"
         style="stop-color:#e7e600;stop-opacity:1"
         id="stop4080" /><stop
         offset="1"
         style="stop-color:#92d400;stop-opacity:1"
         id="stop4082" /></linearGradient><linearGradient
       inkscape:collect="always"
       xlink:href="#linearGradient4086"
       id="linearGradient4048"
       gradientUnits="userSpaceOnUse"
       gradientTransform="matrix(48.198212,-9.7983389,-9.7983389,-48.198212,490.34149,324.41327)"
       spreadMethod="pad"
       x1="-0.049774252"
       y1="-0.24484047"
       x2="0.92764741"
       y2="0.025793923" /><linearGradient
       inkscape:collect="always"
       xlink:href="#linearGradient4094"
       id="linearGradient4050"
       gradientUnits="userSpaceOnUse"
       gradientTransform="matrix(-9.5043554,-26.998419,-26.998419,9.5043554,504.45206,356.08008)"
       spreadMethod="pad"
       x1="-0.57444078"
       y1="-0.28262091"
       x2="0.88815671"
       y2="0.01958308" /><linearGradient
       inkscape:collect="always"
       xlink:href="#linearGradient3058"
       id="linearGradient4052"
       gradientUnits="userSpaceOnUse"
       gradientTransform="matrix(-40.905586,30.480108,30.480108,40.905586,551.38312,335.79401)"
       spreadMethod="pad"
       x1="0.016551627"
       y1="0.066035494"
       x2="0.93832719"
       y2="-0.038944948" /><linearGradient
       inkscape:collect="always"
       xlink:href="#linearGradient4078"
       id="linearGradient4054"
       gradientUnits="userSpaceOnUse"
       gradientTransform="matrix(14.673892,33.055462,33.055462,-14.673892,533.51434,312.24768)"
       spreadMethod="pad"
       x1="-0.1514923"
       y1="-0.013566542"
       x2="0.94599009"
       y2="0.023975948" /><linearGradient
       inkscape:collect="always"
       xlink:href="#linearGradient4077"
       id="linearGradient4083"
       x1="316.64697"
       y1="490.71478"
       x2="0.046875"
       y2="251.10638"
       gradientUnits="userSpaceOnUse" /><linearGradient
       id="linearGradient4077"><stop
         id="stop4079"
         offset="0"
         style="stop-color:#92d400;stop-opacity:1;" /><stop
         id="stop4081"
         offset="1"
         style="stop-color:#e7e600;stop-opacity:1;" /></linearGradient><linearGradient
       id="linearGradient3933"><stop
         id="stop3935"
         offset="0"
         style="stop-color:#92d400;stop-opacity:1;" /><stop
         id="stop3937"
         offset="1"
         style="stop-color:#e7e600;stop-opacity:1;" /></linearGradient><linearGradient
       id="linearGradient3940"><stop
         id="stop3942"
         offset="0"
         style="stop-color:#92d400;stop-opacity:1;" /><stop
         id="stop3944"
         offset="1"
         style="stop-color:#e7e600;stop-opacity:1;" /></linearGradient><linearGradient
       id="linearGradient4067"><stop
         style="stop-color:#e98300;stop-opacity:1;"
         offset="0"
         id="stop4069" /><stop
         style="stop-color:#fecb00;stop-opacity:1;"
         offset="1"
         id="stop4071" /></linearGradient><linearGradient
       inkscape:collect="always"
       xlink:href="#linearGradient4077-4"
       id="linearGradient4083-7"
       x1="316.64697"
       y1="490.71478"
       x2="0.046875"
       y2="251.10638"
       gradientUnits="userSpaceOnUse" /><linearGradient
       id="linearGradient4077-4"><stop
         id="stop4079-0"
         offset="0"
         style="stop-color:#85ff0f;stop-opacity:1;" /><stop
         id="stop4081-9"
         offset="1"
         style="stop-color:#e8ff1a;stop-opacity:1;" /></linearGradient><linearGradient
       id="linearGradient3089"><stop
         id="stop3091"
         offset="0"
         style="stop-color:#85ff0f;stop-opacity:1;" /><stop
         id="stop3093"
         offset="1"
         style="stop-color:#e8ff1a;stop-opacity:1;" /></linearGradient><linearGradient
       id="linearGradient3096-8"><stop
         id="stop3098"
         offset="0"
         style="stop-color:#85ff0f;stop-opacity:1;" /><stop
         id="stop3100"
         offset="1"
         style="stop-color:#e8ff1a;stop-opacity:1;" /></linearGradient><linearGradient
       id="linearGradient4067-4"><stop
         style="stop-color:#ff6b00;stop-opacity:1"
         offset="0"
         id="stop4069-5" /><stop
         style="stop-color:#feda00;stop-opacity:1"
         offset="1"
         id="stop4071-5" /></linearGradient></defs><sodipodi:namedview
     pagecolor="#ffffff"
     bordercolor="#666666"
     borderopacity="1"
     objecttolerance="10"
     gridtolerance="10"
     guidetolerance="10"
     inkscape:pageopacity="0"
     inkscape:pageshadow="2"
     inkscape:window-width="1920"
     inkscape:window-height="1027"
     id="namedview4"
     showgrid="false"
     inkscape:zoom="4.8061165"
     inkscape:cx="550.90447"
     inkscape:cy="100.22752"
     inkscape:window-x="1912"
     inkscape:window-y="-8"
     inkscape:window-maximized="1"
     inkscape:current-layer="g4320"
     fit-margin-top="0"
     fit-margin-left="0"
     fit-margin-right="0"
     fit-margin-bottom="0"
     inkscape:document-units="px" /><g
     transform="matrix(1.25,0,0,-1.25,0,314.99999)"
     inkscape:label="logo"
     inkscape:groupmode="layer"
     id="g3838"
     style="display:inline;opacity:1"><g
       id="g3844"
       transform="matrix(2.1340284,0,0,2.1340284,30.637889,242.5526)"
       style="display:inline;fill:#212322;fill-opacity:1"><path
         inkscape:connector-curvature="0"
         d="m 0,0 c -3.102,-2.824 -4.918,-7.158 -4.918,-13.003 l 0,-7.192 -9,-0.032 0,-11.878 9,0 0,-52 17,0 0,52 12,0 0,11.91 -12,-0.032 0,5.554 c 0,2.863 0.702,4.861 1.876,5.994 1.172,1.133 2.78,1.7 5.644,1.7 1.629,0 3.48,-0.179 4.48,-0.537 l 0,10.797 c -2,0.635 -7.14,0.954 -10.281,0.954 C 7.478,4.235 3.102,2.823 0,0"
         style="fill:#212322;fill-opacity:1;fill-rule:nonzero;stroke:none"
         id="path3846" /></g><g
       id="g3848"
       transform="matrix(2.1340284,0,0,2.1340284,301.40127,85.942864)"
       style="display:inline;fill:#212322;fill-opacity:1"><path
         inkscape:connector-curvature="0"
         d="m 0,0 c -4.533,0 -7.963,1.824 -10.289,5.472 -2.327,3.649 -3.49,8.74 -3.49,15.277 0,6.841 1.183,12.075 3.549,15.705 2.366,3.629 5.816,5.444 10.349,5.444 4.493,0 7.814,-1.692 9.962,-5.073 2.147,-3.383 3.221,-8.571 3.221,-15.563 C 13.302,7.087 8.867,0 0,0 m 7.098,53.076 c -9.981,0 -16.861,-3.795 -20.638,-11.795 l -0.239,0 -0.018,9.909 0,24.091 -16,0 0,-71.006 c 0,0.008 -0.254,-15.281 -0.253,-15.265 l 16.512,0.123 -0.121,11.148 0.119,0 c 1.789,-4 4.354,-6.392 7.694,-8.292 3.341,-1.9 7.297,-2.892 11.87,-2.892 7.953,0 14.067,2.801 18.342,8.444 4.274,5.644 6.413,13.547 6.413,23.732 0,10.108 -2.039,17.954 -6.114,23.483 -4.077,5.529 -9.932,8.32 -17.567,8.32"
         style="fill:#212322;fill-opacity:1;fill-rule:nonzero;stroke:none"
         id="path3850" /></g><g
       id="g3856"
       transform="matrix(2.1340284,0,0,2.1340284,666.81181,197.51286)"
       style="display:inline;fill:#212322;fill-opacity:1"><path
         inkscape:connector-curvature="0"
         d="M 0,0 -21.186,0 -34.905,-21.03 -48.684,0 l -20.54,0 21.208,-30.744 -21.489,-32.65 19.806,0.042 14.794,22.973 14.688,-22.925 20.641,0.036 -23.159,32.697 L 0,0 Z"
         style="fill:#212322;fill-opacity:1;fill-rule:nonzero;stroke:none"
         id="path3858" /></g><g
       id="g3860"
       transform="matrix(2.1340284,0,0,2.1340284,153.317,85.915768)"
       style="display:inline;fill:#212322;fill-opacity:1"><path
         inkscape:connector-curvature="0"
         d="m 0,0 c -4.693,0 -8.282,1.795 -10.766,5.385 -2.487,3.589 -3.728,8.821 -3.728,15.697 0,13.941 5.088,20.912 15.269,20.912 4.772,0 8.411,-1.652 10.916,-4.957 2.505,-3.305 3.758,-8.624 3.758,-15.955 C 15.449,7.027 10.298,0 0,0 m 0.537,52.991 c -10.3,0 -18.312,-2.84 -24.038,-8.518 -5.727,-5.68 -8.59,-13.476 -8.59,-23.391 0,-9.952 2.863,-17.777 8.59,-23.475 5.726,-5.698 13.618,-8.547 23.68,-8.547 10.259,0 18.29,2.839 24.098,8.518 5.806,5.679 8.709,13.514 8.709,23.504 0,10.294 -2.774,18.186 -8.321,23.676 -5.548,5.488 -13.591,8.233 -24.128,8.233"
         style="fill:#212322;fill-opacity:1;fill-rule:nonzero;stroke:none"
         id="path3862" /></g><g
       id="g3864"
       transform="matrix(2.1340284,0,0,2.1340284,762.78504,197.51286)"
       style="display:inline;fill:#212322;fill-opacity:1"><path
         inkscape:connector-curvature="0"
         d="m 0,0 0,-38.192 c 0,-3.412 -0.699,-6.226 -3.05,-8.443 -2.353,-2.218 -4.954,-3.325 -8.801,-3.325 -7.1,0 -10.149,3.921 -10.149,11.768 L -22,0 l -17,0 0,-40.623 c 0,-1.106 0.164,-2.172 0.249,-3.206 0.389,-2.385 3.958,-19.557 24.366,-19.557 12.81,0 15.385,3.384 15.385,3.384 0,-0.032 -0.069,-4.612 -0.069,-4.612 0,-0.465 -0.014,-0.918 -0.047,-1.365 l -0.005,0.013 c 0,0 -0.01,-0.202 -0.043,-0.532 -0.161,-1.634 -0.876,-6.7 -3.708,-9.207 -0.03,-0.027 -0.06,-0.049 -0.09,-0.075 -3.38,-2.934 -7.053,-2.608 -8.944,-2.513 -1.909,0.095 -11.766,-1.707 -11.766,8.293 l -15.52,0 c 0,0 -0.238,-2.703 0.579,-5.889 0.134,-0.544 0.292,-1.239 0.473,-1.739 1.326,-3.82 4.243,-8.47 10.567,-11.67 0.099,-0.051 0.197,-0.147 0.298,-0.196 0.279,-0.138 0.57,-0.292 0.863,-0.424 0.092,-0.04 0.182,-0.094 0.275,-0.134 0.154,-0.067 0.299,-0.144 0.456,-0.209 l -0.006,0.022 c 3.949,-1.59 8.748,-2.315 14.329,-2.315 4.018,0 7.801,0.64 11.351,1.919 3.548,1.278 6.626,3.113 9.235,5.499 2.608,2.389 4.345,5.33 5.842,8.826 1.495,3.497 1.93,7.463 1.93,11.896 L 17,0 0,0 Z"
         style="fill:#212322;fill-opacity:1;fill-rule:nonzero;stroke:none"
         id="path3866" /></g><g
       transform="matrix(0.2768,0,0,-0.2768,380.36305,200.62826)"
       style="display:inline"
       id="g4320"><path
         inkscape:connector-curvature="0"
         id="path4306"
         d="M 250,0 A 250,250 0 0 0 241.75195,0.41210938 317.49976,317.49976 0 0 0 134.98242,127.26367 310,310 0 0 1 250,105 a 310,310 0 0 1 22.27734,1.17383 310,310 0 0 1 13.86719,1.25781 310,310 0 0 1 17.89649,2.75195 310,310 0 0 1 12.00781,2.31446 310,310 0 0 1 19.12305,4.93554 310,310 0 0 1 10.16992,3.03907 310,310 0 0 1 20.06836,7.38672 310,310 0 0 1 9.66406,3.97656 310,310 0 0 1 11.5039,5.32617 310,310 0 0 1 1.53126,0.70898 337.5,337.5 0 0 1 0.0488,0.13477 A 310,310 0 0 1 499.05469,231.0918 250,250 0 0 0 250,0 Z"
         style="display:inline;opacity:1;fill:#e35205;fill-opacity:1;stroke:none;stroke-width:11.58600044;stroke-linecap:round;stroke-linejoin:round;stroke-miterlimit:4;stroke-dasharray:none;stroke-dashoffset:0;stroke-opacity:1" /><path
         inkscape:connector-curvature="0"
         id="path4304"
         d="M 203.95117,4.4355469 A 250,250 0 0 0 0.75390625,232.50195 289.99881,289.99881 0 0 0 91.996094,327.60156 337.5,337.5 0 0 1 85,261 337.5,337.5 0 0 1 85.583984,250 l -0.193359,0 a 337.5,337.5 0 0 1 1.175781,-18.54102 337.5,337.5 0 0 1 3.019532,-22.29492 337.5,337.5 0 0 1 1.882812,-12.21289 337.5,337.5 0 0 1 3.775391,-15.80859 337.5,337.5 0 0 1 4.667968,-18.05469 337.5,337.5 0 0 1 8.101561,-23.57422 310,310 0 0 1 0.11133,-0.0508 337.5,337.5 0 0 1 95.82617,-135.0273431 z"
         style="display:inline;opacity:1;fill:#84bd00;fill-opacity:1;stroke:none;stroke-width:11.58600044;stroke-linecap:round;stroke-linejoin:round;stroke-miterlimit:4;stroke-dasharray:none;stroke-dashoffset:0;stroke-opacity:1" /><path
         inkscape:connector-curvature="0"
         id="path4302"
         d="M 398.68359,166.66602 A 337.5,337.5 0 0 1 413.9668,250 l 0.082,0 a 337.5,337.5 0 0 1 0.33594,6.71875 337.5,337.5 0 0 1 0.61523,12.28516 337.5,337.5 0 0 1 -1.54102,28.01757 337.5,337.5 0 0 1 -1.19921,11.33985 337.5,337.5 0 0 1 -3.84375,24.61523 337.5,337.5 0 0 1 -1.80469,8.67774 A 337.5,337.5 0 0 1 336.75,484.13672 250,250 0 0 0 499.37109,267.70117 289.99881,289.99881 0 0 0 398.68359,166.66602 Z"
         style="display:inline;opacity:1;fill:#84bd00;fill-opacity:1;stroke:none;stroke-width:11.58600044;stroke-linecap:round;stroke-linejoin:round;stroke-miterlimit:4;stroke-dasharray:none;stroke-dashoffset:0;stroke-opacity:1" /><path
         inkscape:connector-curvature="0"
         id="path4796-4"
         d="M 0.9453125,268.9082 A 250,250 0 0 0 250,500 250,250 0 0 0 300.16992,494.88672 317.49976,317.49976 0 0 0 379.53516,366.0957 310,310 0 0 1 250,395 a 310,310 0 0 1 -21.31445,-1.08789 310,310 0 0 1 -15.8418,-1.43555 310,310 0 0 1 -14.60547,-2.2207 310,310 0 0 1 -16.08789,-3.09961 310,310 0 0 1 -13.82422,-3.54492 310,310 0 0 1 -16.19726,-4.83985 310,310 0 0 1 -12.9375,-4.73632 310,310 0 0 1 -16.05664,-6.60743 310,310 0 0 1 -11.99805,-5.81054 310,310 0 0 1 -12.474611,-6.23242 337.5,337.5 0 0 1 -0.117187,-0.49024 A 310,310 0 0 1 0.9453125,268.9082 Z"
         style="display:inline;opacity:1;fill:#84bd00;fill-opacity:1;stroke:none;stroke-width:11.58600044;stroke-linecap:round;stroke-linejoin:round;stroke-miterlimit:4;stroke-dasharray:none;stroke-dashoffset:0;stroke-opacity:1" /></g></g></svg>