<svg width="40" height="39" viewBox="0 0 40 39" fill="none" xmlns="http://www.w3.org/2000/svg">
<path d="M19.9951 0C19.781 0.00705104 19.567 0.0175868 19.3532 0.0316029C15.7573 2.49173 12.8894 5.84877 11.0426 9.75931C13.8895 8.63478 16.928 8.05534 19.9951 8.052C20.5741 8.0615 21.1524 8.09152 21.7291 8.14202C22.0896 8.1662 22.4495 8.19836 22.8085 8.23847C23.2748 8.29544 23.7393 8.36581 24.2015 8.44951C24.5142 8.50261 24.8258 8.56178 25.1361 8.62699C25.6362 8.73755 26.1326 8.86377 26.6246 9.00548C26.8898 9.07871 27.1537 9.1564 27.4162 9.23853C27.9433 9.40959 28.4643 9.59853 28.9782 9.80499C29.2307 9.90246 29.4814 10.0041 29.7304 10.1099C30.0317 10.2401 30.3302 10.3762 30.6258 10.5184C30.6656 10.5364 30.7054 10.5545 30.745 10.5727C30.7463 10.5762 30.7476 10.5796 30.7488 10.5831C34.1576 12.2579 37.1156 14.7041 39.3806 17.7214C39.0097 12.9047 36.807 8.40347 33.2129 5.11785C29.6187 1.83222 24.8981 0.00442966 19.9951 0Z" fill="#E35205"/>
<path d="M16.4109 0.340334C12.1832 1.1232 8.33804 3.26417 5.47645 6.42851C2.61487 9.59286 0.898196 13.6022 0.594818 17.8298C2.36266 20.7655 4.79272 23.2608 7.69674 25.1226C7.34382 23.4421 7.1614 21.7312 7.1522 20.0152C7.16269 19.7338 7.17784 19.4525 7.19765 19.1716H7.1826C7.19986 18.6969 7.23038 18.2228 7.27412 17.7498C7.33316 17.1775 7.41154 16.6073 7.50915 16.0401C7.55219 15.727 7.60105 15.4148 7.6557 15.1035C7.74376 14.6972 7.84174 14.293 7.94956 13.8912C8.0577 13.4265 8.17886 12.9648 8.3129 12.5067C8.50043 11.8967 8.71077 11.2936 8.94349 10.6989C8.94638 10.6976 8.94927 10.6963 8.95215 10.695C10.5271 6.68681 13.0905 3.12817 16.4109 0.340334Z" fill="#84BD00"/>
<path d="M31.5681 12.781C32.2355 14.8535 32.6352 17.0006 32.7577 19.1715H32.764C32.7745 19.3432 32.7832 19.5149 32.7902 19.6868C32.812 20.0005 32.8279 20.3146 32.8381 20.6289C32.8283 21.3464 32.7883 22.0632 32.7181 22.7774C32.692 23.0678 32.6609 23.3577 32.6248 23.647C32.5487 24.2796 32.4489 24.9093 32.3256 25.5346C32.2817 25.7571 32.2349 25.9789 32.1851 26.2001C31.2798 30.2163 29.4157 33.9619 26.7474 37.1265C30.252 35.8493 33.3093 33.6051 35.5539 30.6618C37.7986 27.7186 39.1356 24.2008 39.4052 20.529C37.4883 17.3437 34.7944 14.6805 31.5681 12.781Z" fill="#84BD00"/>
<path d="M0.609558 20.6216C0.980384 25.4383 3.18312 29.9395 6.77726 33.2252C10.3714 36.5108 15.092 38.3386 19.995 38.343C21.3067 38.3423 22.6151 38.211 23.9 37.9509C26.7368 35.1972 28.8561 31.8089 30.0775 28.0745C26.9185 29.5218 23.4788 30.278 19.995 30.291C19.4412 30.282 18.8878 30.2542 18.3359 30.2076C17.924 30.1813 17.5129 30.1446 17.1029 30.0975C16.7226 30.0496 16.3436 29.9929 15.9661 29.9272C15.5466 29.8589 15.129 29.7796 14.7138 29.6895C14.3531 29.607 13.9943 29.5164 13.6378 29.4177C13.2142 29.3053 12.7938 29.1815 12.3771 29.0465C12.0387 28.9328 11.703 28.8117 11.3701 28.6833C10.9488 28.5259 10.532 28.357 10.1203 28.1766C9.8058 28.0347 9.49443 27.8861 9.18642 27.731C8.85916 27.5789 8.53542 27.4196 8.21544 27.2531C8.21239 27.2406 8.20935 27.228 8.20632 27.2155C5.22925 25.5716 2.64 23.3241 0.609558 20.6216Z" fill="#84BD00"/>
</svg>
